<svg width="22" height="20" viewBox="0 0 22 20" fill="none" xmlns="http://www.w3.org/2000/svg">
<path d="M10.3645 0.882554C10.6683 -0.0293057 11.9581 -0.0293055 12.262 0.882554L14.0744 6.32215C14.2105 6.73056 14.5926 7.00604 15.0231 7.00604H20.8337C21.8085 7.00604 22.2072 8.25846 21.4118 8.822L16.7545 12.1217C16.3952 12.3763 16.2447 12.836 16.3839 13.2538L18.173 18.6233C18.4785 19.5402 17.4348 20.3141 16.6462 19.7554L11.8914 16.3865C11.545 16.1411 11.0815 16.1411 10.7351 16.3865L5.98032 19.7554C5.19173 20.3141 4.14798 19.5402 4.45348 18.6233L6.24255 13.2538C6.38175 12.836 6.23126 12.3763 5.87194 12.1217L1.21467 8.822C0.419271 8.25846 0.817978 7.00604 1.79278 7.00604H7.60337C8.03385 7.00604 8.41602 6.73055 8.5521 6.32215L10.3645 0.882554Z" fill="#070707"/>
</svg>
