<svg width="22" height="20" viewBox="0 0 22 20" fill="none" xmlns="http://www.w3.org/2000/svg">
<path d="M9.73806 0.992362C10.0427 0.0823495 11.3299 0.0823498 11.6346 0.992362L13.4468 6.40504C13.5833 6.81274 13.9651 7.08755 14.3951 7.08755H20.1943C21.1703 7.08755 21.5682 8.34244 20.7706 8.90483L16.131 12.1761C15.7699 12.4306 15.6187 12.8919 15.759 13.3108L17.5432 18.6399C17.8499 19.556 16.8082 20.3314 16.0187 19.7747L11.2626 16.4212C10.917 16.1776 10.4556 16.1776 10.1101 16.4212L5.35392 19.7747C4.56439 20.3314 3.52271 19.556 3.82941 18.6399L5.61366 13.3108C5.75392 12.8919 5.60269 12.4306 5.24164 12.1761L0.602082 8.90483C-0.19556 8.34244 0.202351 7.08755 1.17832 7.08755H6.97756C7.4075 7.08755 7.78931 6.81274 7.92582 6.40504L9.73806 0.992362Z" fill="#E5E5E5"/>
</svg>
